<?xml version="1.0" encoding="UTF-8"?>
<svg width="400" height="400" viewBox="0 0 400 400" fill="none" xmlns="http://www.w3.org/2000/svg">
    <rect width="400" height="400" fill="#F3F4F6"/>
    <path d="M100 150C100 122.386 122.386 100 150 100H250C277.614 100 300 122.386 300 150V250C300 277.614 277.614 300 250 300H150C122.386 300 100 277.614 100 250V150Z" fill="#E5E7EB"/>
    <path d="M150 150H250V250H150V150Z" fill="#9CA3AF" fill-opacity="0.3"/>
    <path d="M150 150L200 200L150 250M250 150L200 200L250 250M200 200L150 150V250M200 200L250 150V250" stroke="#9CA3AF" stroke-width="2" stroke-linecap="round" stroke-linejoin="round"/>
</svg>
